#!OML:ASF E:\Style4\Style4.ASF
:FULLY-SPECIFIED
:DEGREES
2752
root 0.210376 16.3097 -0.0326152 4.23892 11.3381 5.15319
lowerback 13.6434 3.58968 -1.37388
upperback 5.23392 4.55926 -0.636024
thorax -2.17382 2.27092 -0.585396
lowerneck 7.00205 -2.95911 -4.32041
upperneck 2.03523 -4.22344 2.69207
head -0.390855 -2.15458 1.66664
rclavicle 5.4467e-014 8.74653e-015
rhumerus -31.1548 8.50047 -64.3261
rradius 137.201
rwrist -71.5783
rhand 57.5254 -3.49804
rfingers 7.12502
rthumb 73.8839 20.5099
lclavicle 5.4467e-014 8.74653e-015
lhumerus -16.9333 -5.03546 59.8019
lradius 140.774
lwrist 74.0647
lhand 37.4415 49.0419
lfingers 7.12502
lthumb 60.2426 62.565
rfemur -29.6195 -13.0343 13.2617
rtibia 64.6508
rfoot -32.1222 -22.2318
rtoes -14.7954
lfemur -31.0362 -5.06144 -25.2251
ltibia 59.7617
lfoot -30.0497 9.66851
ltoes -19.4057
2753
root 0.206597 16.3051 -0.0380578 4.25581 11.3798 5.1043
lowerback 13.7603 3.5937 -1.34818
upperback 5.21825 4.56539 -0.616066
thorax -2.25261 2.27382 -0.58841
lowerneck 7.02273 -2.98136 -4.2554
upperneck 1.81377 -4.24804 2.69236
head -0.464279 -2.1657 1.65991
rclavicle -3.04141e-014 1.19271e-014
rhumerus -31.592 7.8244 -64.9168
rradius 137.211
rwrist -71.3687
rhand 57.4657 -3.62234
rfingers 7.12502
rthumb 73.8625 20.193
lclavicle -3.04141e-014 1.19271e-014
lhumerus -17.3762 -4.4635 60.429
lradius 140.805
lwrist 73.665
lhand 37.7516 49.0393
lfingers 7.12502
lthumb 60.5067 62.2765
rfemur -29.7105 -13.0412 13.3439
rtibia 64.7233
rfoot -32.1208 -22.4371
rtoes -15.145
lfemur -31.1533 -5.05236 -25.1527
ltibia 59.8474
lfoot -30.0926 9.7651
ltoes -19.9716
2754
root 0.20391 16.3003 -0.043784 4.26735 11.4206 5.12884
lowerback 13.9092 3.59725 -1.36562
upperback 5.18341 4.56338 -0.626499
thorax -2.36931 2.27251 -0.600639
lowerneck 7.0696 -3.00735 -4.20355
upperneck 1.66245 -4.27961 2.70028
head -0.519505 -2.18091 1.65767
rclavicle -1.78906e-015 8.74653e-015
rhumerus -32.011 7.40945 -65.3748
rradius 137.218
rwrist -71.1391
rhand 57.3917 -3.58934
rfingers 7.12502
rthumb 73.8356 19.9878
lclavicle -1.78906e-015 8.74653e-015
lhumerus -17.7217 -4.11784 60.9422
lradius 140.88
lwrist 73.4977
lhand 37.5112 49.031
lfingers 7.12502
lthumb 60.302 62.4903
rfemur -29.7768 -13.0655 13.3289
rtibia 64.7998
rfoot -32.191 -22.5466
rtoes -15.403
lfemur -31.2253 -5.10097 -25.1662
ltibia 59.9268
lfoot -30.206 9.8561
ltoes -20.4392
2755
root 0.203559 16.2965 -0.0477026 4.27539 11.4392 5.09359
lowerback 13.9458 3.58546 -1.34303
upperback 5.20165 4.55122 -0.595716
thorax -2.37064 2.26636 -0.581009
lowerneck 7.0564 -3.00784 -4.22785
upperneck 1.55102 -4.2812 2.70652
head -0.551746 -2.18141 1.66554
rclavicle -1.59028e-014 -1.11319e-014
rhumerus -32.1968 7.16066 -65.5917
rradius 137.166
rwrist -71.1057
rhand 57.4498 -3.6104
rfingers 7.12502
rthumb 73.8567 20.1536
lclavicle -1.59028e-014 -1.11319e-014
lhumerus -17.992 -3.8793 61.3816
lradius 140.927
lwrist 73.4784
lhand 37.1879 48.8941
lfingers 7.12502
lthumb 60.026 62.6471
rfemur -29.8412 -13.0656 13.3714
rtibia 64.8686
rfoot -32.2131 -22.5719
rtoes -15.4041
lfemur -31.2845 -5.12787 -25.1282
ltibia 60.0031
lfoot -30.17 9.72697
ltoes -20.1725
2756
root 0.20355 16.2917 -0.0540935 4.31884 11.4367 5.09316
lowerback 13.9519 3.58784 -1.32164
upperback 5.22482 4.55761 -0.586232
thorax -2.34879 2.26965 -0.583495
lowerneck 7.04898 -3.00558 -4.3242
upperneck 1.44007 -4.28423 2.7949
head -0.581976 -2.184 1.7127
rclavicle 4.83047e-014 2.38542e-015
rhumerus -32.3581 6.97518 -65.653
rradius 137.142
rwrist -71.1678
rhand 57.8275 -3.81257
rfingers 7.12502
rthumb 73.9898 21.1783
lclavicle 4.83047e-014 2.38542e-015
lhumerus -18.2111 -3.78113 61.6459
lradius 140.989
lwrist 73.4826
lhand 37.0051 48.792
lfingers 7.12502
lthumb 59.8696 62.7085
rfemur -29.9542 -13.0603 13.3857
rtibia 64.9406
rfoot -32.2215 -22.5708
rtoes -15.3181
lfemur -31.4058 -5.14112 -25.1249
ltibia 60.0904
lfoot -30.0832 9.52098
ltoes -19.3041
2757
root 0.202835 16.2864 -0.060424 4.34614 11.4367 5.04437
lowerback 13.9629 3.60028 -1.25125
upperback 5.23759 4.58327 -0.580995
thorax -2.33639 2.28291 -0.621417
lowerneck 7.07101 -3.02358 -4.33911
upperneck 1.35029 -4.30908 2.85941
head -0.611672 -2.19706 1.73875
rclavicle 5.08889e-014 -8.74653e-015
rhumerus -32.5069 6.94888 -65.6543
rradius 137.165
rwrist -71.226
rhand 58.1518 -4.04254
rfingers 7.12502
rthumb 74.0979 22.0176
lclavicle 5.08889e-014 -8.74653e-015
lhumerus -18.2862 -3.70665 61.6764
lradius 141.028
lwrist 73.3751
lhand 37.3163 49.0096
lfingers 7.12502
lthumb 60.1357 62.6466
rfemur -30.0561 -13.0402 13.4577
rtibia 65.006
rfoot -32.2474 -22.6123
rtoes -15.2764
lfemur -31.5332 -5.15969 -25.0665
ltibia 60.1845
lfoot -30.152 9.62703
ltoes -19.5104
2758
root 0.201132 16.2821 -0.0651661 4.34233 11.4618 5.02202
lowerback 13.948 3.58679 -1.26715
upperback 5.29326 4.56592 -0.541582
thorax -2.27448 2.274 -0.565614
lowerneck 7.10251 -3.00395 -4.33805
upperneck 1.19751 -4.28345 2.84552
head -0.666612 -2.1836 1.73704
rclavicle 4.55217e-014 -1.59028e-014
rhumerus -32.5117 7.13019 -65.5517
rradius 137.123
rwrist -71.3306
rhand 58.125 -4.03078
rfingers 7.12502
rthumb 74.0892 21.9405
lclavicle 4.55217e-014 -1.59028e-014
lhumerus -18.2622 -3.63768 61.6596
lradius 141
lwrist 73.3052
lhand 37.7476 49.0451
lfingers 7.12502
lthumb 60.5032 62.286
rfemur -30.1095 -13.0532 13.4929
rtibia 65.0696
rfoot -32.2351 -22.6649
rtoes -15.2974
lfemur -31.6101 -5.22709 -25.0406
ltibia 60.2694
lfoot -30.2217 9.87304
ltoes -20.1901
